<?xml version="1.0" encoding="utf-8"?>
<!-- Generator: Adobe Illustrator 26.1.0, SVG Export Plug-In . SVG Version: 6.00 Build 0)  -->
<svg version="1.1" id="Vrstva_1" xmlns="http://www.w3.org/2000/svg" xmlns:xlink="http://www.w3.org/1999/xlink" x="0px" y="0px"
	 viewBox="0 0 1532 494" style="enable-background:new 0 0 1532 494;" xml:space="preserve">
<style type="text/css">
	.st0{fill:#3B82F6;}
</style>
<path class="st0" d="M206.5,8.5c82.62,2.74,165.39-4.13,248-1c98.24,3.72,178.16,5.15,338,8c209.4,3.73,314.1,5.6,398,2
	c84.92-3.65,170.29,7.07,255,0c15.19-1.27,22.46-0.18,37,2c14.15,2.12,22.15,3.41,28,9c7.74,7.39,6.96,17.78,6,43c0,0-2,52.35-2,113
	c0,0,0,0,0,0c-3.9,55.42-0.23,98.46,4,128c4.92,34.36,1.21,69.5,5,104c0.66,6.04,2.73,23.77-7,40c0,0-5.46,9.11-15,16
	c-43.3,31.28-368.16,5.31-372,5c-25.28-2.02-71.19-2.68-163-4c-161.94-2.33-185.2,4.1-350,3c-171.32-1.14-235.87-6.48-339-3
	c-132.7,4.48-199.06,6.72-200,7c-2.62,0.77-14.38,4.48-28,1c-2.05-0.52-16.6-4.45-26-17c-11.76-15.71-8.87-36.16-8-43
	c7.52-59.21-6.13-119.36-4-179c1.26-35.29,1.95-85.49-1-147c-4.22-16.29-6.74-38.01,4-56C38.7-1.03,113.47,5.42,206.5,8.5z"/>
</svg>
